<svg width="120" height="101" viewBox="0 0 120 101" fill="none" xmlns="http://www.w3.org/2000/svg">
<path d="M43.2475 0L120 39.0797H97.4257L43.2475 12.058L11.8812 28.3291L16.8713 74.5274L43.2475 79.3215C61.9406 74.5274 99.9445 65.433 102.416 67.4088C104.887 69.3846 115.168 76.1739 120 79.3215L43.2475 100.387L0 74.5274V28.3291L43.2475 0Z" fill="url(#paint0_linear_306_149)"/>
<path d="M33.422 24.2601L27 66.088L77 59.4282L42.1376 46.5761L77 37.9301L33.422 24.2601Z" fill="url(#paint1_linear_306_149)"/>
<path d="M111.62 48.4334C114.95 50.8963 115.208 55.1974 112.195 58.0402C109.182 60.8829 104.04 61.1908 100.71 58.7279C97.3795 56.265 97.122 51.9639 100.135 49.1212C103.147 46.2784 108.289 45.9705 111.62 48.4334Z" fill="#2563EB"/>
<defs>
<linearGradient id="paint0_linear_306_149" x1="60" y1="0" x2="60" y2="100.387" gradientUnits="userSpaceOnUse">
<stop stop-color="#06B6D4"/>
<stop offset="1" stop-color="#2563EB"/>
</linearGradient>
<linearGradient id="paint1_linear_306_149" x1="52" y1="24.2601" x2="52" y2="66.088" gradientUnits="userSpaceOnUse">
<stop stop-color="#06B6D4"/>
<stop offset="1" stop-color="#2563EB"/>
</linearGradient>
</defs>
</svg>
