<svg width="224" height="36" viewBox="0 0 224 36" fill="none" xmlns="http://www.w3.org/2000/svg">
<path d="M30.767 12.2557H24.392C24.21 11.2103 23.875 10.2841 23.386 9.4773C22.898 8.6591 22.29 7.9659 21.562 7.3978C20.835 6.8296 20.006 6.4034 19.074 6.1193C18.153 5.8239 17.159 5.6762 16.091 5.6762C14.193 5.6762 12.511 6.1534 11.045 7.108C9.57901 8.0512 8.432 9.4375 7.602 11.2671C6.773 13.0853 6.35799 15.3068 6.35799 17.9318C6.35799 20.6023 6.773 22.8523 7.602 24.6818C8.443 26.5 9.59101 27.875 11.045 28.8068C12.511 29.7273 14.187 30.1875 16.074 30.1875C17.119 30.1875 18.096 30.0512 19.005 29.7784C19.926 29.4943 20.75 29.0796 21.477 28.5341C22.216 27.9887 22.835 27.3182 23.335 26.5228C23.846 25.7273 24.199 24.8182 24.392 23.7955L30.767 23.8296C30.528 25.4887 30.011 27.0455 29.216 28.5C28.432 29.9546 27.403 31.2387 26.131 32.3523C24.858 33.4546 23.369 34.3182 21.665 34.9432C19.96 35.5568 18.068 35.8637 15.988 35.8637C12.92 35.8637 10.182 35.1534 7.773 33.733C5.363 32.3125 3.466 30.2614 2.079 27.5796C0.693002 24.8978 0 21.6818 0 17.9318C0 14.1705 0.699001 10.9546 2.096 8.2841C3.494 5.6023 5.398 3.5512 7.807 2.1307C10.216 0.710299 12.943 0 15.988 0C17.932 0 19.738 0.272799 21.409 0.818199C23.079 1.3637 24.568 2.1648 25.875 3.2216C27.182 4.2671 28.256 5.5512 29.096 7.0739C29.949 8.5853 30.506 10.3125 30.767 12.2557ZM40.619 35.3864H33.869L46.159 0.477303H53.966L66.273 35.3864H59.523L50.199 7.6364H49.926L40.619 35.3864ZM40.841 21.6989H59.25V26.7784H40.841V21.6989ZM70.871 35.3864V0.477303H77.194V30.0853H92.569V35.3864H70.871ZM92.156 0.477303H99.298L107.838 15.9205H108.179L116.719 0.477303H123.861L111.162 22.3637V35.3864H104.855V22.3637L92.156 0.477303ZM129.008 5.7784V0.477303H156.861V5.7784H146.071V35.3864H139.798V5.7784H129.008ZM162.23 35.3864V0.477303H175.321C178.003 0.477303 180.253 0.9432 182.071 1.875C183.9 2.8068 185.281 4.1137 186.213 5.7955C187.156 7.4659 187.628 9.4148 187.628 11.6421C187.628 13.8807 187.15 15.8239 186.196 17.4716C185.253 19.108 183.861 20.375 182.02 21.2728C180.179 22.1591 177.917 22.6023 175.236 22.6023H165.912V17.3523H174.383C175.952 17.3523 177.236 17.1364 178.236 16.7046C179.236 16.2614 179.974 15.6193 180.452 14.7784C180.94 13.9262 181.184 12.8807 181.184 11.6421C181.184 10.4034 180.94 9.3466 180.452 8.4716C179.963 7.5853 179.219 6.9148 178.219 6.4603C177.219 5.9943 175.929 5.7614 174.349 5.7614H168.554V35.3864H162.23ZM180.264 19.5682L188.906 35.3864H181.849L173.361 19.5682H180.264ZM197.932 35.3864H191.182L203.471 0.477303H211.278L223.585 35.3864H216.835L207.511 7.6364H207.238L197.932 35.3864ZM198.153 21.6989H216.562V26.7784H198.153V21.6989Z" fill="#2563EB"/>
</svg>
